<svg width="40" height="40" viewBox="0 0 40 40" fill="none" xmlns="http://www.w3.org/2000/svg">
<path d="M13.3333 9.58325C12.6499 9.58325 12.0833 9.01659 12.0833 8.33325V3.33325C12.0833 2.64992 12.6499 2.08325 13.3333 2.08325C14.0166 2.08325 14.5833 2.64992 14.5833 3.33325V8.33325C14.5833 9.01659 14.0166 9.58325 13.3333 9.58325Z" fill="#1E1983"/>
<path d="M26.6667 9.58325C25.9834 9.58325 25.4167 9.01659 25.4167 8.33325V3.33325C25.4167 2.64992 25.9834 2.08325 26.6667 2.08325C27.3501 2.08325 27.9167 2.64992 27.9167 3.33325V8.33325C27.9167 9.01659 27.3501 9.58325 26.6667 9.58325Z" fill="#1E1983"/>
<path d="M14.1667 24.1666C13.95 24.1666 13.7333 24.1166 13.5333 24.0333C13.3167 23.95 13.15 23.8333 12.9833 23.6833C12.6833 23.3666 12.5 22.9499 12.5 22.4999C12.5 22.2833 12.55 22.0666 12.6333 21.8666C12.7167 21.6666 12.8333 21.4833 12.9833 21.3166C13.15 21.1666 13.3167 21.0499 13.5333 20.9666C14.1333 20.7166 14.8833 20.85 15.35 21.3166C15.65 21.6333 15.8333 22.0666 15.8333 22.4999C15.8333 22.5999 15.8167 22.7166 15.8 22.8333C15.7833 22.9333 15.75 23.0333 15.7 23.1333C15.6667 23.2333 15.6167 23.3333 15.55 23.4333C15.5 23.5166 15.4167 23.5999 15.35 23.6833C15.0333 23.9833 14.6 24.1666 14.1667 24.1666Z" fill="#1E1983"/>
<path d="M19.9999 24.1667C19.7833 24.1667 19.5666 24.1167 19.3666 24.0334C19.1499 23.9501 18.9833 23.8334 18.8166 23.6834C18.5166 23.3667 18.3333 22.95 18.3333 22.5C18.3333 22.2834 18.3833 22.0667 18.4666 21.8667C18.5499 21.6667 18.6666 21.4834 18.8166 21.3167C18.9833 21.1667 19.1499 21.05 19.3666 20.9667C19.9666 20.7 20.7166 20.85 21.1832 21.3167C21.4832 21.6334 21.6666 22.0667 21.6666 22.5C21.6666 22.6 21.6499 22.7167 21.6332 22.8334C21.6166 22.9334 21.5832 23.0334 21.5332 23.1334C21.4999 23.2334 21.4499 23.3334 21.3833 23.4334C21.3333 23.5167 21.2499 23.6 21.1832 23.6834C20.8666 23.9834 20.4333 24.1667 19.9999 24.1667Z" fill="#1E1983"/>
<path d="M25.8334 24.1667C25.6167 24.1667 25.4001 24.1167 25.2001 24.0334C24.9834 23.9501 24.8167 23.8334 24.6501 23.6834C24.5834 23.6 24.5167 23.5167 24.4501 23.4334C24.3834 23.3334 24.3334 23.2334 24.3001 23.1334C24.2501 23.0334 24.2167 22.9334 24.2001 22.8334C24.1834 22.7167 24.1667 22.6 24.1667 22.5C24.1667 22.0667 24.3501 21.6334 24.6501 21.3167C24.8167 21.1667 24.9834 21.05 25.2001 20.9667C25.8167 20.7 26.5501 20.85 27.0167 21.3167C27.3167 21.6334 27.5001 22.0667 27.5001 22.5C27.5001 22.6 27.4834 22.7167 27.4667 22.8334C27.4501 22.9334 27.4167 23.0334 27.3667 23.1334C27.3334 23.2334 27.2834 23.3334 27.2168 23.4334C27.1668 23.5167 27.0834 23.6 27.0167 23.6834C26.7001 23.9834 26.2667 24.1667 25.8334 24.1667Z" fill="#1E1983"/>
<path d="M14.1667 30C13.95 30 13.7333 29.95 13.5333 29.8667C13.3333 29.7833 13.15 29.6666 12.9833 29.5166C12.6833 29.2 12.5 28.7667 12.5 28.3333C12.5 28.1167 12.55 27.9 12.6333 27.7C12.7167 27.4833 12.8333 27.3 12.9833 27.15C13.6 26.5333 14.7333 26.5333 15.35 27.15C15.65 27.4667 15.8333 27.9 15.8333 28.3333C15.8333 28.7667 15.65 29.2 15.35 29.5166C15.0333 29.8166 14.6 30 14.1667 30Z" fill="#1E1983"/>
<path d="M19.9999 30C19.5666 30 19.1333 29.8166 18.8166 29.5166C18.5166 29.2 18.3333 28.7667 18.3333 28.3333C18.3333 28.1167 18.3833 27.9 18.4666 27.7C18.5499 27.4833 18.6666 27.3 18.8166 27.15C19.4333 26.5333 20.5666 26.5333 21.1832 27.15C21.3332 27.3 21.4499 27.4833 21.5332 27.7C21.6166 27.9 21.6666 28.1167 21.6666 28.3333C21.6666 28.7667 21.4832 29.2 21.1832 29.5166C20.8666 29.8166 20.4333 30 19.9999 30Z" fill="#1E1983"/>
<path d="M25.8334 30.0001C25.4001 30.0001 24.9667 29.8168 24.6501 29.5168C24.5001 29.3668 24.3834 29.1834 24.3001 28.9668C24.2168 28.7668 24.1667 28.5501 24.1667 28.3334C24.1667 28.1168 24.2168 27.9001 24.3001 27.7001C24.3834 27.4834 24.5001 27.3001 24.6501 27.1501C25.0334 26.7668 25.6167 26.5834 26.1501 26.7001C26.2667 26.7167 26.3668 26.7501 26.4668 26.8001C26.5668 26.8334 26.6668 26.8835 26.7668 26.9501C26.8501 27.0001 26.9334 27.0834 27.0167 27.1501C27.3167 27.4668 27.5001 27.9001 27.5001 28.3334C27.5001 28.7668 27.3167 29.2001 27.0167 29.5168C26.7001 29.8168 26.2667 30.0001 25.8334 30.0001Z" fill="#1E1983"/>
<path d="M34.1666 16.3999H5.83325C5.14992 16.3999 4.58325 15.8332 4.58325 15.1499C4.58325 14.4666 5.14992 13.8999 5.83325 13.8999H34.1666C34.8499 13.8999 35.4166 14.4666 35.4166 15.1499C35.4166 15.8332 34.8499 16.3999 34.1666 16.3999Z" fill="#1E1983"/>
<path d="M26.6667 37.9166H13.3333C7.25 37.9166 3.75 34.4166 3.75 28.3333V14.1666C3.75 8.08325 7.25 4.58325 13.3333 4.58325H26.6667C32.75 4.58325 36.25 8.08325 36.25 14.1666V28.3333C36.25 34.4166 32.75 37.9166 26.6667 37.9166ZM13.3333 7.08325C8.56667 7.08325 6.25 9.39992 6.25 14.1666V28.3333C6.25 33.0999 8.56667 35.4166 13.3333 35.4166H26.6667C31.4333 35.4166 33.75 33.0999 33.75 28.3333V14.1666C33.75 9.39992 31.4333 7.08325 26.6667 7.08325H13.3333Z" fill="#1E1983"/>
</svg>
