<svg width="80" height="80" viewBox="0 0 80 80" fill="none" xmlns="http://www.w3.org/2000/svg">
<path d="M40.5 64.5C39.1333 64.5 38 63.3667 38 62V55C38 53.6333 39.1333 52.5 40.5 52.5C41.8667 52.5 43 53.6333 43 55V62C43 63.3667 41.8667 64.5 40.5 64.5Z" fill="url(#paint0_linear_356_3946)"/>
<path d="M59.6667 75.8334H21.3333V70C21.3333 64.9334 25.4333 60.8334 30.5 60.8334H50.5C55.5667 60.8334 59.6667 64.9334 59.6667 70V75.8334ZM26.3333 70.8334H54.6667V70C54.6667 67.7 52.8 65.8334 50.5 65.8334H30.5C28.2 65.8334 26.3333 67.7 26.3333 70V70.8334Z" fill="url(#paint1_linear_356_3946)"/>
<path d="M60.5 75.8334H20.5C19.1333 75.8334 18 74.7 18 73.3334C18 71.9667 19.1333 70.8334 20.5 70.8334H60.5C61.8667 70.8334 63 71.9667 63 73.3334C63 74.7 61.8667 75.8334 60.5 75.8334Z" fill="url(#paint2_linear_356_3946)"/>
<path d="M61.4333 41.4667C60.7333 41.4667 60.0333 41.1667 59.5333 40.6C58.9 39.8667 58.7333 38.8334 59.1333 37.9667C60.2667 35.3667 60.8333 32.6 60.8333 29.7V19.7C60.8333 18.5334 60.6333 17.4 60.2333 16.2C60.2 16.1 60.1667 15.9667 60.1333 15.8334C60.0333 15.3334 60 14.8334 60 14.3667C60 13 61.1333 11.8667 62.5 11.8667H64.5C70.4667 11.8667 75.3333 16.8667 75.3333 23.0334C75.3333 28.1334 73.2333 33.1667 69.6 36.8C69.5333 36.8667 69.3333 37.0334 69.3 37.0667C67.3333 38.7 65.1 40.5334 62.1 41.3667C61.8667 41.4334 61.6667 41.4667 61.4333 41.4667ZM65.6 16.9667C65.7667 17.8667 65.8333 18.8 65.8333 19.7V29.7C65.8333 31.0667 65.7333 32.3667 65.5333 33.7C65.7333 33.5334 65.9 33.4 66.1 33.2334C68.7667 30.5667 70.3333 26.8334 70.3333 23.0334C70.3333 20.0334 68.3 17.5 65.6 16.9667Z" fill="url(#paint3_linear_356_3946)"/>
<path d="M18.6 41.3333C18.3333 41.3333 18.1 41.3 17.8333 41.2C15.1 40.3333 12.5333 38.7333 10.4 36.6C6.56667 32.3667 4.66667 27.7333 4.66667 22.8333C4.66667 16.7667 9.43334 12 15.5 12H17.6667C18.5 12 19.3 12.4333 19.7667 13.1333C20.2333 13.8333 20.3 14.7333 19.9667 15.5C19.4333 16.7 19.1667 18.0667 19.1667 19.5V29.5C19.1667 32.3667 19.7333 35.1667 20.9 37.8333C21.3 38.7333 21.1 39.7667 20.4667 40.5C19.9667 41.0333 19.3 41.3333 18.6 41.3333ZM14.3333 17.1C11.6333 17.6333 9.66667 19.9667 9.66667 22.8333C9.66667 26.4667 11.1333 29.9667 14.0333 33.1667C14.1667 33.3333 14.3333 33.4667 14.5 33.6C14.2667 32.2333 14.1667 30.8667 14.1667 29.5V19.5C14.1667 18.7 14.2333 17.9 14.3333 17.1Z" fill="url(#paint4_linear_356_3946)"/>
<path d="M40 55.8333C25.7667 55.8333 14.1667 44.2333 14.1667 30V20C14.1667 11.2666 21.2667 4.16663 30 4.16663H50C58.7333 4.16663 65.8333 11.2666 65.8333 20V30C65.8333 44.2333 54.2333 55.8333 40 55.8333ZM30 9.16663C24.0333 9.16663 19.1667 14.0333 19.1667 20V30C19.1667 41.5 28.5 50.8333 40 50.8333C51.5 50.8333 60.8333 41.5 60.8333 30V20C60.8333 14.0333 55.9667 9.16663 50 9.16663H30Z" fill="url(#paint5_linear_356_3946)"/>
<defs>
<linearGradient id="paint0_linear_356_3946" x1="39.3176" y1="54.625" x2="44.9528" y2="56.0844" gradientUnits="userSpaceOnUse">
<stop stop-color="#0049FC"/>
<stop offset="1" stop-color="#00CBFE"/>
</linearGradient>
<linearGradient id="paint1_linear_356_3946" x1="31.4345" y1="63.4896" x2="44.5204" y2="84.2752" gradientUnits="userSpaceOnUse">
<stop stop-color="#0049FC"/>
<stop offset="1" stop-color="#00CBFE"/>
</linearGradient>
<linearGradient id="paint2_linear_356_3946" x1="29.858" y1="71.7188" x2="31.5339" y2="81.0939" gradientUnits="userSpaceOnUse">
<stop stop-color="#0049FC"/>
<stop offset="1" stop-color="#00CBFE"/>
</linearGradient>
<linearGradient id="paint3_linear_356_3946" x1="63.2428" y1="17.1084" x2="80.8891" y2="23.1913" gradientUnits="userSpaceOnUse">
<stop stop-color="#0049FC"/>
<stop offset="1" stop-color="#00CBFE"/>
</linearGradient>
<linearGradient id="paint4_linear_356_3946" x1="8.99877" y1="17.1944" x2="26.6307" y2="23.3365" gradientUnits="userSpaceOnUse">
<stop stop-color="#0049FC"/>
<stop offset="1" stop-color="#00CBFE"/>
</linearGradient>
<linearGradient id="paint5_linear_356_3946" x1="27.7814" y1="13.3159" x2="72.6029" y2="41.1746" gradientUnits="userSpaceOnUse">
<stop stop-color="#0049FC"/>
<stop offset="1" stop-color="#00CBFE"/>
</linearGradient>
</defs>
</svg>
