<svg width="80" height="80" viewBox="0 0 80 80" fill="none" xmlns="http://www.w3.org/2000/svg">
<path d="M34.7669 61.2334C34.2669 61.2334 33.8002 61.1 33.3669 60.8C32.6669 60.3334 32.2669 59.5667 32.2669 58.7334C32.2669 58.2334 32.2335 57.7 32.1669 57.1667C31.8669 54.8 30.8002 52.7334 29.0002 50.9334C27.2002 49.1334 24.9669 48 22.5669 47.7C22.1669 47.6667 21.6002 47.6334 21.0669 47.6667C20.2002 47.7334 19.4002 47.3667 18.9002 46.6667C18.4002 46 18.2669 45.1 18.5335 44.3C19.0335 42.9334 19.7669 41.7 20.6335 40.7L25.7669 34.2334C34.6002 23.2 52.5002 9.93336 65.6002 4.66669C68.4002 3.60002 71.3335 4.23336 73.3669 6.23336C75.4669 8.33336 76.1002 11.3334 75.0002 14.0667C69.7335 27.2 56.5002 45.0667 45.4669 53.9L38.9002 59.1667C37.6669 60.0667 36.6669 60.6334 35.6669 61.0334C35.4002 61.1667 35.0669 61.2334 34.7669 61.2334ZM25.1335 43.1334C27.9335 43.8667 30.4335 45.3334 32.5335 47.4334C34.6335 49.5 36.0335 51.9 36.7335 54.5667L42.3669 50.0334C52.8335 41.6667 65.4002 24.7 70.3669 12.2334C70.8669 11 70.1669 10.1334 69.8335 9.83336C69.6002 9.60002 68.7335 8.86669 67.4002 9.36669C55.0002 14.3667 38.0335 26.9334 29.6335 37.4L25.1335 43.1334Z" fill="url(#paint0_linear_159_2139)"/>
<path d="M13.5999 75.8333C11.0999 75.8333 8.69988 74.8333 6.89988 73.0333C4.83321 70.9667 3.83321 68.1 4.16655 65.1666L5.06655 56.9667C5.93321 48.8333 12.5999 42.8 20.8665 42.6333C21.4999 42.6 22.3332 42.6333 23.0999 42.7C26.7332 43.1667 29.9666 44.8 32.5665 47.4C35.1332 49.9667 36.6665 53.0333 37.1332 56.4667C37.2332 57.2 37.2999 58 37.2999 58.7C37.2999 63.1 35.5999 67.2 32.5332 70.3C29.9665 72.8333 26.6665 74.4 22.9332 74.8667L14.6999 75.7667C14.3332 75.8 13.9665 75.8333 13.5999 75.8333ZM21.4999 47.6667C21.3665 47.6667 21.1999 47.6667 21.0665 47.6667C16.0332 47.7667 10.6999 51.2 10.0332 57.5333L9.13321 65.7333C8.96655 67.1333 9.46655 68.5 10.4332 69.5C11.3999 70.4667 12.7665 70.9667 14.1332 70.8L22.3332 69.9C24.8999 69.5667 27.1999 68.5 28.9332 66.7667C31.0665 64.6333 32.2666 61.7667 32.2666 58.7C32.2666 58.2 32.2332 57.6666 32.1665 57.1333C31.8665 54.7666 30.7999 52.7 28.9999 50.9C27.1999 49.1 24.9665 47.9667 22.5665 47.6667C22.2999 47.6667 21.8999 47.6667 21.4999 47.6667Z" fill="url(#paint1_linear_159_2139)"/>
<path d="M47.4669 50.7333C46.1002 50.7333 44.9669 49.6 44.9669 48.2333C44.9669 40.9 39.0002 34.9667 31.7002 34.9667C30.3335 34.9667 29.2002 33.8333 29.2002 32.4667C29.2002 31.1 30.3002 29.9667 31.6669 29.9667C41.7335 29.9667 49.9335 38.1667 49.9335 48.2333C49.9669 49.6333 48.8335 50.7333 47.4669 50.7333Z" fill="url(#paint2_linear_159_2139)"/>
<path d="M52.2667 75.7667C49.1667 75.7667 46.0667 74.3 43.1 71.3333C42.1333 70.3667 42.1333 68.7667 43.1 67.8C44.0667 66.8334 45.6667 66.8334 46.6333 67.8C50.5667 71.7334 53.9333 71.7334 57.8667 67.8L67.7333 57.9333C71.7 53.9667 71.7 50.6 67.7333 46.6667L65.2667 44.2334C64.3 43.2667 64.2667 41.6667 65.2333 40.7C66.2 39.7 67.8 39.7 68.7667 40.6667L71.2333 43.1C77.1667 49.0334 77.1667 55.5334 71.2333 61.4667L61.3667 71.3333C58.4667 74.2667 55.3667 75.7667 52.2667 75.7667Z" fill="url(#paint3_linear_159_2139)"/>
<path d="M10.3669 37.5333C9.73353 37.5333 9.06686 37.3 8.6002 36.8C2.73353 30.9 2.73353 24.3667 8.6002 18.4667L18.4669 8.60001C24.3335 2.73335 30.9335 2.73335 36.8002 8.60001L39.2669 11.0667C40.2335 12.0333 40.2335 13.6333 39.2669 14.6C38.3002 15.5667 36.7002 15.5667 35.7335 14.6L33.2335 12.1333C29.3002 8.20001 25.9002 8.20001 22.0002 12.1333L12.1335 22C8.2002 25.9667 8.2002 29.3333 12.1335 33.3C13.1002 34.2667 13.1002 35.8667 12.1335 36.8333C11.6335 37.3 11.0002 37.5333 10.3669 37.5333Z" fill="url(#paint4_linear_159_2139)"/>
<path d="M25.1665 27.6667C24.5331 27.6667 23.8998 27.4333 23.3998 26.9333C22.4331 25.9667 22.4331 24.3667 23.3998 23.4L35.7331 11.0667C36.6998 10.1 38.2998 10.1 39.2665 11.0667C40.2331 12.0333 40.2331 13.6333 39.2665 14.6L26.9331 26.9333C26.4331 27.4333 25.7998 27.6667 25.1665 27.6667Z" fill="url(#paint5_linear_159_2139)"/>
<path d="M57.2002 54.7667C56.5668 54.7667 55.9335 54.5333 55.4335 54.0333C54.4668 53.0667 54.4668 51.4667 55.4335 50.5L65.3002 40.6333C66.2668 39.6667 67.8668 39.6667 68.8335 40.6333C69.8002 41.6 69.8002 43.2 68.8335 44.1667L58.9668 54.0333C58.5002 54.5333 57.8668 54.7667 57.2002 54.7667Z" fill="url(#paint6_linear_159_2139)"/>
<defs>
<linearGradient id="paint0_linear_159_2139" x1="33.4542" y1="14.2617" x2="82.9922" y2="45.0812" gradientUnits="userSpaceOnUse">
<stop stop-color="#0049FC"/>
<stop offset="1" stop-color="#00CBFE"/>
</linearGradient>
<linearGradient id="paint1_linear_159_2139" x1="12.8511" y1="48.5017" x2="41.6574" y2="66.3972" gradientUnits="userSpaceOnUse">
<stop stop-color="#0049FC"/>
<stop offset="1" stop-color="#00CBFE"/>
</linearGradient>
<linearGradient id="paint2_linear_159_2139" x1="34.6638" y1="33.6441" x2="52.6666" y2="44.8161" gradientUnits="userSpaceOnUse">
<stop stop-color="#0049FC"/>
<stop offset="1" stop-color="#00CBFE"/>
</linearGradient>
<linearGradient id="paint3_linear_159_2139" x1="51.1521" y1="46.2891" x2="81.1802" y2="63.6438" gradientUnits="userSpaceOnUse">
<stop stop-color="#0049FC"/>
<stop offset="1" stop-color="#00CBFE"/>
</linearGradient>
<linearGradient id="paint4_linear_159_2139" x1="13.6317" y1="10.1028" x2="43.4122" y2="29.9779" gradientUnits="userSpaceOnUse">
<stop stop-color="#0049FC"/>
<stop offset="1" stop-color="#00CBFE"/>
</linearGradient>
<linearGradient id="paint5_linear_159_2139" x1="27.2379" y1="13.4096" x2="42.2644" y2="22.7448" gradientUnits="userSpaceOnUse">
<stop stop-color="#0049FC"/>
<stop offset="1" stop-color="#00CBFE"/>
</linearGradient>
<linearGradient id="paint6_linear_159_2139" x1="58.6216" y1="42.5395" x2="71.5082" y2="50.5446" gradientUnits="userSpaceOnUse">
<stop stop-color="#0049FC"/>
<stop offset="1" stop-color="#00CBFE"/>
</linearGradient>
</defs>
</svg>
