<svg width="80" height="80" viewBox="0 0 80 80" fill="none" xmlns="http://www.w3.org/2000/svg">
<path d="M33.3 75.8334C32.6333 75.8334 32.1 75.7 31.7 75.5333C30.3666 75.0333 28.1 73.4 28.1 68.2333V46.7334H20.3C15.8333 46.7334 14.2333 44.6334 13.6666 43.4C13.1 42.1334 12.6 39.5667 15.5333 36.2L40.7666 7.53335C44.1666 3.66669 46.9333 3.93335 48.2666 4.43335C49.6 4.93335 51.8666 6.56669 51.8666 11.7334V33.2334H59.6666C64.1333 33.2334 65.7333 35.3334 66.3 36.5667C66.8666 37.8334 67.3666 40.4 64.4333 43.7667L39.2 72.4333C36.8333 75.1333 34.7666 75.8334 33.3 75.8334ZM46.4333 9.13335C46.3333 9.26669 45.6333 9.60002 44.5333 10.8667L19.3 39.5334C18.3666 40.6 18.2333 41.2667 18.2333 41.4C18.3 41.4334 18.9 41.7667 20.3 41.7667H30.6C31.9666 41.7667 33.1 42.9 33.1 44.2667V68.2667C33.1 69.9333 33.4 70.6667 33.5333 70.8667C33.6333 70.7334 34.3333 70.4 35.4333 69.1333L60.6666 40.4667C61.6 39.4 61.7333 38.7334 61.7333 38.6C61.6666 38.5667 61.0666 38.2334 59.6666 38.2334H49.3666C48 38.2334 46.8666 37.1 46.8666 35.7334V11.7334C46.9 10.0667 46.5666 9.36669 46.4333 9.13335Z" fill="url(#paint0_linear_356_3925)"/>
<defs>
<linearGradient id="paint0_linear_356_3925" x1="27.3313" y1="16.8453" x2="80.2783" y2="41.4067" gradientUnits="userSpaceOnUse">
<stop stop-color="#0049FC"/>
<stop offset="1" stop-color="#00CBFE"/>
</linearGradient>
</defs>
</svg>
