<svg width="80" height="80" viewBox="0 0 80 80" fill="none" xmlns="http://www.w3.org/2000/svg">
<path d="M54.2666 73.6667H41.6C39.7333 73.6667 35.6666 73.1 33.5 70.9333L23.4 63.1333L26.4666 59.1667L36.8 67.1667C37.6333 67.9667 39.7333 68.6333 41.6 68.6333H54.2666C57.2666 68.6333 60.5 66.2333 61.1666 63.5333L69.2333 39.0333C69.7666 37.5667 69.6666 36.2333 68.9666 35.2667C68.2333 34.2333 66.9 33.6333 65.2666 33.6333H51.9333C50.2 33.6333 48.6 32.9 47.5 31.6333C46.3666 30.3333 45.8666 28.6 46.1333 26.8L47.8 16.1C48.2 14.2333 46.9333 12.1333 45.1333 11.5333C43.5 10.9333 41.4 11.8 40.6666 12.8667L27 33.2L22.8666 30.4333L36.5333 10.1C38.6333 6.96667 43.2333 5.46667 46.8333 6.83334C51 8.20001 53.6666 12.8 52.7333 17.0667L51.1 27.5667C51.0666 27.8 51.0666 28.1333 51.3 28.4C51.4666 28.5667 51.7 28.6667 51.9666 28.6667H65.3C68.5666 28.6667 71.4 30.0333 73.0666 32.4C74.7 34.7 75.0333 37.7333 73.9666 40.6667L66 64.9333C64.7666 69.7667 59.6333 73.6667 54.2666 73.6667Z" fill="url(#paint0_linear_356_3960)"/>
<path d="M17.9334 70H14.6C8.43335 70 5.43335 67.1 5.43335 61.1666V28.5C5.43335 22.5666 8.43335 19.6666 14.6 19.6666H17.9334C24.1 19.6666 27.1 22.5666 27.1 28.5V61.1666C27.1 67.1 24.1 70 17.9334 70ZM14.6 24.6666C10.9667 24.6666 10.4334 25.5333 10.4334 28.5V61.1666C10.4334 64.1333 10.9667 65 14.6 65H17.9334C21.5667 65 22.1 64.1333 22.1 61.1666V28.5C22.1 25.5333 21.5667 24.6666 17.9334 24.6666H14.6Z" fill="url(#paint1_linear_356_3960)"/>
<defs>
<linearGradient id="paint0_linear_356_3960" x1="36.4941" y1="18.2514" x2="87.1482" y2="42.43" gradientUnits="userSpaceOnUse">
<stop stop-color="#0049FC"/>
<stop offset="1" stop-color="#00CBFE"/>
</linearGradient>
<linearGradient id="paint1_linear_356_3960" x1="11.1427" y1="28.5798" x2="35.4595" y2="35.0858" gradientUnits="userSpaceOnUse">
<stop stop-color="#0049FC"/>
<stop offset="1" stop-color="#00CBFE"/>
</linearGradient>
</defs>
</svg>
