<svg width="48" height="48" viewBox="0 0 48 48" fill="none" xmlns="http://www.w3.org/2000/svg">
<path d="M24 28.3399C19.74 28.3399 16.26 24.8799 16.26 20.5999C16.26 16.3199 19.74 12.8799 24 12.8799C28.26 12.8799 31.74 16.3399 31.74 20.6199C31.74 24.8999 28.26 28.3399 24 28.3399ZM24 15.8799C21.4 15.8799 19.26 17.9999 19.26 20.6199C19.26 23.2399 21.38 25.3599 24 25.3599C26.62 25.3599 28.74 23.2399 28.74 20.6199C28.74 17.9999 26.6 15.8799 24 15.8799Z" fill="url(#paint0_linear_337_1643)"/>
<path d="M24 45.52C21.04 45.52 18.06 44.4 15.74 42.18C9.83999 36.5 3.31999 27.44 5.77999 16.66C7.99999 6.88 16.54 2.5 24 2.5C24 2.5 24 2.5 24.02 2.5C31.48 2.5 40.02 6.88 42.24 16.68C44.68 27.46 38.16 36.5 32.26 42.18C29.94 44.4 26.96 45.52 24 45.52ZM24 5.5C18.18 5.5 10.7 8.6 8.71999 17.32C6.55999 26.74 12.48 34.86 17.84 40C21.3 43.34 26.72 43.34 30.18 40C35.52 34.86 41.44 26.74 39.32 17.32C37.32 8.6 29.82 5.5 24 5.5Z" fill="url(#paint1_linear_337_1643)"/>
<defs>
<linearGradient id="paint0_linear_337_1643" x1="20.3391" y1="15.6176" x2="33.7586" y2="23.9692" gradientUnits="userSpaceOnUse">
<stop stop-color="#0049FC"/>
<stop offset="1" stop-color="#00CBFE"/>
</linearGradient>
<linearGradient id="paint1_linear_337_1643" x1="15.1333" y1="10.1181" x2="50.008" y2="29.0226" gradientUnits="userSpaceOnUse">
<stop stop-color="#0049FC"/>
<stop offset="1" stop-color="#00CBFE"/>
</linearGradient>
</defs>
</svg>
