<svg width="48" height="48" viewBox="0 0 48 48" fill="none" xmlns="http://www.w3.org/2000/svg">
<path d="M30 45.5H18C9.18 45.5 6.5 42.82 6.5 34V14C6.5 5.18 9.18 2.5 18 2.5H30C38.82 2.5 41.5 5.18 41.5 14V34C41.5 42.82 38.82 45.5 30 45.5ZM18 5.5C10.84 5.5 9.5 6.86 9.5 14V34C9.5 41.14 10.84 42.5 18 42.5H30C37.16 42.5 38.5 41.14 38.5 34V14C38.5 6.86 37.16 5.5 30 5.5H18Z" fill="url(#paint0_linear_1_3762)"/>
<path d="M28 12.5H20C19.18 12.5 18.5 11.82 18.5 11C18.5 10.18 19.18 9.5 20 9.5H28C28.82 9.5 29.5 10.18 29.5 11C29.5 11.82 28.82 12.5 28 12.5Z" fill="url(#paint1_linear_1_3762)"/>
<path d="M24 39.72C21.46 39.72 19.4 37.66 19.4 35.12C19.4 32.58 21.46 30.52 24 30.52C26.54 30.52 28.6 32.58 28.6 35.12C28.6 37.66 26.54 39.72 24 39.72ZM24 33.5C23.12 33.5 22.4 34.22 22.4 35.1C22.4 35.98 23.12 36.7 24 36.7C24.88 36.7 25.6 35.98 25.6 35.1C25.6 34.22 24.88 33.5 24 33.5Z" fill="url(#paint2_linear_1_3762)"/>
<defs>
<linearGradient id="paint0_linear_1_3762" x1="15.7229" y1="10.1146" x2="49.2377" y2="27.0701" gradientUnits="userSpaceOnUse">
<stop stop-color="#0049FC"/>
<stop offset="1" stop-color="#00CBFE"/>
</linearGradient>
<linearGradient id="paint1_linear_1_3762" x1="21.3986" y1="10.0313" x2="23.5345" y2="14.8989" gradientUnits="userSpaceOnUse">
<stop stop-color="#0049FC"/>
<stop offset="1" stop-color="#00CBFE"/>
</linearGradient>
<linearGradient id="paint2_linear_1_3762" x1="21.8243" y1="32.1492" x2="29.8054" y2="37.1098" gradientUnits="userSpaceOnUse">
<stop stop-color="#0049FC"/>
<stop offset="1" stop-color="#00CBFE"/>
</linearGradient>
</defs>
</svg>
