<svg width="80" height="80" viewBox="0 0 80 80" fill="none" xmlns="http://www.w3.org/2000/svg">
<path d="M40 75.8333C22.5333 75.8333 8.33333 61.6333 8.33333 44.1667C8.33333 26.7 22.5333 12.5 40 12.5C57.4667 12.5 71.6667 26.7 71.6667 44.1667C71.6667 61.6333 57.4667 75.8333 40 75.8333ZM40 17.5C25.3 17.5 13.3333 29.4667 13.3333 44.1667C13.3333 58.8667 25.3 70.8333 40 70.8333C54.7 70.8333 66.6667 58.8667 66.6667 44.1667C66.6667 29.4667 54.7 17.5 40 17.5Z" fill="url(#paint0_linear_356_3935)"/>
<path d="M40 45.8333C38.6333 45.8333 37.5 44.7 37.5 43.3333V26.6666C37.5 25.3 38.6333 24.1666 40 24.1666C41.3667 24.1666 42.5 25.3 42.5 26.6666V43.3333C42.5 44.7 41.3667 45.8333 40 45.8333Z" fill="url(#paint1_linear_356_3935)"/>
<path d="M50 9.16663H30C28.6333 9.16663 27.5 8.03329 27.5 6.66663C27.5 5.29996 28.6333 4.16663 30 4.16663H50C51.3667 4.16663 52.5 5.29996 52.5 6.66663C52.5 8.03329 51.3667 9.16663 50 9.16663Z" fill="url(#paint2_linear_356_3935)"/>
<defs>
<linearGradient id="paint0_linear_356_3935" x1="25.0223" y1="23.7153" x2="79.9648" y2="57.8646" gradientUnits="userSpaceOnUse">
<stop stop-color="#0049FC"/>
<stop offset="1" stop-color="#00CBFE"/>
</linearGradient>
<linearGradient id="paint1_linear_356_3935" x1="38.8176" y1="28.0034" x2="44.7096" y2="28.8485" gradientUnits="userSpaceOnUse">
<stop stop-color="#0049FC"/>
<stop offset="1" stop-color="#00CBFE"/>
</linearGradient>
<linearGradient id="paint2_linear_356_3935" x1="34.0878" y1="5.05204" x2="36.9088" y2="13.819" gradientUnits="userSpaceOnUse">
<stop stop-color="#0049FC"/>
<stop offset="1" stop-color="#00CBFE"/>
</linearGradient>
</defs>
</svg>
